<svg xmlns="http://www.w3.org/2000/svg" viewBox="0 0 1000 280.606">
  <g>
    <path d="M787.53,109.843A106.132,106.132,0,1,1,681.4,3.711,106.131,106.131,0,0,1,787.53,109.843"/>
    <g>
      <path d="M201.007,142.313a4.456,4.456,0,0,1,4.421,5.225c-5.627,37.388-41.809,69.952-98.894,69.952C37.387,217.49,0,172.062,0,109.347,0,43.417,39.4,0,105.327,0c67.539,0,105.328,44.623,106.936,115.78a5.321,5.321,0,0,1-5.226,5.226H60.7c2.413,39,17.689,56.282,46.634,56.282,19.7,0,34.171-8.844,39.8-29.75a6.892,6.892,0,0,1,6.835-5.225ZM105.729,39.8c-24.121,0-38.593,14.473-43.417,43.016h84.824C144.725,60.7,132.263,39.8,105.729,39.8" fill="#fff"/>
      <path d="M248.039,212.263a5.321,5.321,0,0,1-5.226-5.226l2.412-94.071L243.616,10.452a5.322,5.322,0,0,1,5.227-5.226h47.84a4.747,4.747,0,0,1,4.823,5.226l-.8,20.905C314.773,13.266,338.492.4,367.437.4,411.257.4,439,30.151,439,80.805v43.417l1.608,82.815a5.321,5.321,0,0,1-5.226,5.226H384.723a5.32,5.32,0,0,1-5.225-5.226l1.608-82.815V81.609c0-22.513-14.071-36.986-32.162-36.986-21.708,0-45.025,20.1-45.025,64.322v15.277l.8,82.815a5.322,5.322,0,0,1-5.227,5.226Z" fill="#fff"/>
      <path d="M908.536,275.781a7.009,7.009,0,0,1-6.835,4.825H854.666a3.77,3.77,0,0,1-3.618-4.825l21.306-61.508L789.942,10.05a3.392,3.392,0,0,1,3.215-4.824h57.489a7.008,7.008,0,0,1,6.834,4.824L902.1,137.89,938.687,10.05c.8-2.814,4.02-4.824,6.834-4.824h50.654a3.6,3.6,0,0,1,3.618,4.824Z" fill="#fff"/>
      <path d="M538.428,10.452a5.2,5.2,0,0,0-4.97-5.226h-49.7a5.2,5.2,0,0,0-4.97,5.226l2.294,130.655-1.25,73.166h-.078L458.45,275.781a3.77,3.77,0,0,0,3.618,4.825H509.1a7.008,7.008,0,0,0,6.834-4.825l21.123-61.508-.926-73.166Z" fill="#fff"/>
    </g>
  </g>
</svg>
